<mxfile host="Electron" agent="Mozilla/5.0 (X11; Linux x86_64) AppleWebKit/537.36 (KHTML, like Gecko) draw.io/24.7.17 Chrome/128.0.6613.36 Electron/32.0.1 Safari/537.36" version="24.7.17">
  <diagram name="Page-1" id="5VoNiTRzS1JA330-w3Px">
    <mxGraphModel dx="794" dy="478" grid="1" gridSize="10" guides="1" tooltips="1" connect="1" arrows="1" fold="1" page="1" pageScale="1" pageWidth="850" pageHeight="1100" math="0" shadow="0">
      <root>
        <mxCell id="0" />
        <mxCell id="1" parent="0" />
        <mxCell id="XvC0Ti4cy0yzG44n4hqo-10" value="" style="rounded=0;whiteSpace=wrap;html=1;" vertex="1" parent="1">
          <mxGeometry x="90" y="390" width="240" height="120" as="geometry" />
        </mxCell>
        <mxCell id="XvC0Ti4cy0yzG44n4hqo-3" value="" style="rounded=0;whiteSpace=wrap;html=1;" vertex="1" parent="1">
          <mxGeometry y="240" width="280" height="60" as="geometry" />
        </mxCell>
        <mxCell id="XvC0Ti4cy0yzG44n4hqo-13" style="edgeStyle=orthogonalEdgeStyle;rounded=0;orthogonalLoop=1;jettySize=auto;html=1;entryX=0.5;entryY=0;entryDx=0;entryDy=0;" edge="1" parent="1" source="XvC0Ti4cy0yzG44n4hqo-1" target="XvC0Ti4cy0yzG44n4hqo-12">
          <mxGeometry relative="1" as="geometry" />
        </mxCell>
        <mxCell id="XvC0Ti4cy0yzG44n4hqo-1" value="fifo" style="rounded=0;whiteSpace=wrap;html=1;" vertex="1" parent="1">
          <mxGeometry x="40" y="280" width="80" height="40" as="geometry" />
        </mxCell>
        <mxCell id="XvC0Ti4cy0yzG44n4hqo-2" value="math/str" style="rounded=0;whiteSpace=wrap;html=1;" vertex="1" parent="1">
          <mxGeometry x="160" y="280" width="80" height="40" as="geometry" />
        </mxCell>
        <mxCell id="XvC0Ti4cy0yzG44n4hqo-4" value="Common" style="text;html=1;align=center;verticalAlign=middle;whiteSpace=wrap;rounded=0;" vertex="1" parent="1">
          <mxGeometry x="110" y="250" width="60" height="30" as="geometry" />
        </mxCell>
        <mxCell id="XvC0Ti4cy0yzG44n4hqo-5" value="" style="rounded=0;whiteSpace=wrap;html=1;" vertex="1" parent="1">
          <mxGeometry x="360" y="180" width="240" height="120" as="geometry" />
        </mxCell>
        <mxCell id="XvC0Ti4cy0yzG44n4hqo-6" value="configuration" style="rounded=0;whiteSpace=wrap;html=1;" vertex="1" parent="1">
          <mxGeometry x="400" y="280" width="80" height="40" as="geometry" />
        </mxCell>
        <mxCell id="XvC0Ti4cy0yzG44n4hqo-7" value="config-parser" style="rounded=0;whiteSpace=wrap;html=1;" vertex="1" parent="1">
          <mxGeometry x="370" y="220" width="80" height="40" as="geometry" />
        </mxCell>
        <mxCell id="XvC0Ti4cy0yzG44n4hqo-8" value="cmdline-parser" style="rounded=0;whiteSpace=wrap;html=1;" vertex="1" parent="1">
          <mxGeometry x="460" y="220" width="100" height="40" as="geometry" />
        </mxCell>
        <mxCell id="XvC0Ti4cy0yzG44n4hqo-9" value="Configuration" style="text;html=1;align=center;verticalAlign=middle;whiteSpace=wrap;rounded=0;" vertex="1" parent="1">
          <mxGeometry x="450" y="180" width="60" height="30" as="geometry" />
        </mxCell>
        <mxCell id="XvC0Ti4cy0yzG44n4hqo-11" value="Connector" style="rounded=0;whiteSpace=wrap;html=1;" vertex="1" parent="1">
          <mxGeometry x="130" y="490" width="80" height="40" as="geometry" />
        </mxCell>
        <mxCell id="XvC0Ti4cy0yzG44n4hqo-12" value="Job Queue" style="rounded=0;whiteSpace=wrap;html=1;" vertex="1" parent="1">
          <mxGeometry x="100" y="400" width="70" height="40" as="geometry" />
        </mxCell>
        <mxCell id="XvC0Ti4cy0yzG44n4hqo-14" value="Networking" style="text;html=1;align=center;verticalAlign=middle;whiteSpace=wrap;rounded=0;" vertex="1" parent="1">
          <mxGeometry x="180" y="400" width="70" height="30" as="geometry" />
        </mxCell>
        <mxCell id="XvC0Ti4cy0yzG44n4hqo-15" value="Connection" style="rounded=0;whiteSpace=wrap;html=1;" vertex="1" parent="1">
          <mxGeometry x="220" y="490" width="80" height="40" as="geometry" />
        </mxCell>
      </root>
    </mxGraphModel>
  </diagram>
</mxfile>
